<svg width="66" height="66" viewBox="0 0 66 66" fill="none" xmlns="http://www.w3.org/2000/svg">
    <path d="M32.9997 0C14.7747 0 0 14.7748 0 32.9997C0 51.2239 14.7745 66 32.9992 66C51.224 66 66 51.2239 66 32.9997C66 14.7748 51.2248 0 32.9997 0ZM47.8903 41.7543C46.6869 42.957 44.736 42.9577 43.5321 41.7543L32.915 31.135L22.2402 41.8084C21.0374 43.0111 19.0858 43.0118 17.882 41.8084C17.2812 41.2058 16.9804 40.4178 16.9804 39.6293C16.9804 38.8408 17.2812 38.0528 17.8831 37.452L30.2673 25.0668C30.3859 24.8824 30.5218 24.7066 30.6826 24.5458C31.2978 23.9307 32.1074 23.6346 32.9147 23.6489C33.7204 23.6352 34.5313 23.9307 35.1458 24.5465C35.3072 24.7069 35.4425 24.8826 35.5607 25.0668L47.8901 37.3961C49.0931 38.5995 49.0939 40.5504 47.8903 41.7543Z"
          fill="#DF375B"/>
</svg>
