<svg xmlns="http://www.w3.org/2000/svg" fill="none" viewBox="0 301.95 1439 342.05">
    <path fill-rule="evenodd" clip-rule="evenodd"
          d="M0 480.613C71.6444 592.418 129.851 637.097 181.931 644H211.351C262.096 637.361 307.978 597.618 356.643 555.464C455.268 470.035 565.323 374.705 750.451 524.96C964.552 698.73 1081.92 569.592 1182.43 458.995C1262.25 371.171 1331.44 295.039 1430 391.563C1433.07 394.567 1436.07 397.414 1439 400.108V348.544C1439 348.544 1439 348.544 1439 348.544C1436.07 346.198 1433.07 343.717 1430 341.1C1331.44 257.016 1262.25 323.336 1182.43 399.842C1081.92 496.185 964.552 608.681 750.451 457.306C565.323 326.415 455.268 409.459 356.642 483.878C306.774 521.507 259.828 556.931 207.577 561.38H185.661C132.63 556.821 73.3596 518.402 0 418.675V480.613Z"
          fill="url(#paint0_linear_1529_963)"/>
    <defs>
        <linearGradient id="paint0_linear_1529_963" x1="719.5" y1="0" x2="719.5" y2="561.38"
                        gradientUnits="userSpaceOnUse">
            <stop stop-color="#3663A0"/>
            <stop offset="1" stop-color="#88A1D1"/>
        </linearGradient>
    </defs>
</svg>