<svg width="19" height="18" viewBox="0 0 19 18" fill="none" xmlns="http://www.w3.org/2000/svg">
<path d="M4.51455 0.5625C4.51455 0.413316 4.45517 0.270242 4.34948 0.164752C4.24378 0.0592632 4.10043 0 3.95096 0C3.80149 0 3.65814 0.0592632 3.55245 0.164752C3.44675 0.270242 3.38737 0.413316 3.38737 0.5625V1.125H2.2602C1.66231 1.125 1.08891 1.36205 0.666141 1.78401C0.24337 2.20597 0.00585938 2.77826 0.00585938 3.375L0.00585938 4.5H18.0406V3.375C18.0406 2.77826 17.8031 2.20597 17.3803 1.78401C16.9576 1.36205 16.3842 1.125 15.7863 1.125H14.6591V0.5625C14.6591 0.413316 14.5997 0.270242 14.494 0.164752C14.3883 0.0592632 14.245 0 14.0955 0C13.946 0 13.8027 0.0592632 13.697 0.164752C13.5913 0.270242 13.5319 0.413316 13.5319 0.5625V1.125H4.51455V0.5625ZM18.0406 15.75V5.625H0.00585938V15.75C0.00585938 16.3467 0.24337 16.919 0.666141 17.341C1.08891 17.7629 1.66231 18 2.2602 18H15.7863C16.3842 18 16.9576 17.7629 17.3803 17.341C17.8031 16.919 18.0406 16.3467 18.0406 15.75ZM12.2402 9.96075L8.85867 13.3358C8.80632 13.3881 8.74412 13.4297 8.67565 13.4581C8.60718 13.4864 8.53378 13.501 8.45965 13.501C8.38552 13.501 8.31211 13.4864 8.24364 13.4581C8.17517 13.4297 8.11298 13.3881 8.06063 13.3358L6.36987 11.6483C6.26405 11.5426 6.20459 11.3994 6.20459 11.25C6.20459 11.1006 6.26405 10.9574 6.36987 10.8517C6.4757 10.7461 6.61923 10.6868 6.76889 10.6868C6.91855 10.6868 7.06208 10.7461 7.16791 10.8517L8.45965 12.1421L11.4421 9.16425C11.548 9.05863 11.6915 8.99929 11.8412 8.99929C11.9908 8.99929 12.1344 9.05863 12.2402 9.16425C12.346 9.26987 12.4055 9.41313 12.4055 9.5625C12.4055 9.71187 12.346 9.85513 12.2402 9.96075Z" fill="#F5C042"/>
</svg>
