<svg width="19" height="19" viewBox="0 0 19 19" fill="none" xmlns="http://www.w3.org/2000/svg">
<path d="M4.78394 0.613504C4.78394 0.462189 4.72243 0.317071 4.61294 0.210075C4.50345 0.103079 4.35495 0.0429688 4.20011 0.0429688C4.04527 0.0429688 3.89677 0.103079 3.78728 0.210075C3.67779 0.317071 3.61628 0.462189 3.61628 0.613504V1.18404H2.44861C1.82924 1.18404 1.23524 1.42448 0.797283 1.85246C0.359324 2.28045 0.113281 2.86092 0.113281 3.46618L0.113281 4.60725H18.7959V3.46618C18.7959 2.86092 18.5499 2.28045 18.1119 1.85246C17.674 1.42448 17.08 1.18404 16.4606 1.18404H15.2929V0.613504C15.2929 0.462189 15.2314 0.317071 15.1219 0.210075C15.0124 0.103079 14.8639 0.0429688 14.7091 0.0429688C14.5542 0.0429688 14.4057 0.103079 14.2963 0.210075C14.1868 0.317071 14.1253 0.462189 14.1253 0.613504V1.18404H4.78394V0.613504ZM18.7959 16.018V5.74833H0.113281V16.018C0.113281 16.6232 0.359324 17.2037 0.797283 17.6317C1.23524 18.0597 1.82924 18.3001 2.44861 18.3001H16.4606C17.08 18.3001 17.674 18.0597 18.1119 17.6317C18.5499 17.2037 18.7959 16.6232 18.7959 16.018ZM12.7871 10.146L9.28412 13.5692C9.22989 13.6224 9.16546 13.6645 9.09453 13.6933C9.0236 13.722 8.94756 13.7368 8.87077 13.7368C8.79397 13.7368 8.71793 13.722 8.647 13.6933C8.57607 13.6645 8.51165 13.6224 8.45741 13.5692L6.70592 11.8576C6.59629 11.7505 6.5347 11.6052 6.5347 11.4537C6.5347 11.3022 6.59629 11.1569 6.70592 11.0497C6.81554 10.9426 6.96423 10.8824 7.11927 10.8824C7.27431 10.8824 7.42299 10.9426 7.53262 11.0497L8.87077 12.3586L11.9604 9.33814C12.07 9.23101 12.2187 9.17082 12.3738 9.17082C12.5288 9.17082 12.6775 9.23101 12.7871 9.33814C12.8967 9.44527 12.9583 9.59057 12.9583 9.74208C12.9583 9.89358 12.8967 10.0389 12.7871 10.146Z" fill="#E97B5F"/>
</svg>
