<svg width="21" height="17" viewBox="0 0 21 17" fill="none" xmlns="http://www.w3.org/2000/svg">
<path d="M20.3952 4.84167V13.5781C20.3952 15.0885 19.1712 16.3125 17.6608 16.3125H3.33789C2.61269 16.3125 1.91719 16.0244 1.4044 15.5116C0.891601 14.9988 0.603516 14.3033 0.603516 13.5781V4.84167L10.1858 10.1125C10.3811 10.2198 10.6181 10.2198 10.8129 10.1125L20.3952 4.84115V4.84167ZM17.6608 0.6875C18.3746 0.687566 19.0601 0.966746 19.5708 1.4654C20.0815 1.96406 20.377 2.64266 20.3941 3.35625L10.4993 8.79896L0.604557 3.35573L0.605599 3.30885C0.634767 2.60378 0.935394 1.93728 1.44461 1.44874C1.95383 0.960193 2.63221 0.687435 3.33789 0.6875H17.6608Z" fill="#F5C042"/>
</svg>
