<svg width="49" height="49" viewBox="0 0 49 49" fill="none" xmlns="http://www.w3.org/2000/svg">
<circle cx="24.5" cy="24.5" r="24.5" fill="#F5C042"/>
<path d="M32.5 12.2501C32.5 12.0512 32.421 11.8604 32.2803 11.7198C32.1397 11.5791 31.9489 11.5001 31.75 11.5001H28C26.1117 11.406 24.2629 12.0632 22.8576 13.3279C21.4523 14.5927 20.6047 16.3623 20.5 18.2501V22.3001H16.75C16.5511 22.3001 16.3603 22.3791 16.2197 22.5198C16.079 22.6604 16 22.8512 16 23.0501V26.9501C16 27.149 16.079 27.3398 16.2197 27.4804C16.3603 27.6211 16.5511 27.7001 16.75 27.7001H20.5V37.7501C20.5 37.949 20.579 38.1398 20.7197 38.2804C20.8603 38.4211 21.0511 38.5001 21.25 38.5001H25.75C25.9489 38.5001 26.1397 38.4211 26.2803 38.2804C26.421 38.1398 26.5 37.949 26.5 37.7501V27.7001H30.43C30.5968 27.7025 30.7596 27.6492 30.8927 27.5487C31.0258 27.4482 31.1216 27.3062 31.165 27.1451L32.245 23.2451C32.2748 23.1343 32.2789 23.0181 32.2567 22.9055C32.2346 22.7929 32.1869 22.6868 32.1174 22.5955C32.0478 22.5042 31.9582 22.4301 31.8555 22.3789C31.7528 22.3277 31.6398 22.3007 31.525 22.3001H26.5V18.2501C26.5373 17.8788 26.7117 17.5347 26.989 17.2851C27.2664 17.0355 27.6268 16.8982 28 16.9001H31.75C31.9489 16.9001 32.1397 16.8211 32.2803 16.6804C32.421 16.5398 32.5 16.349 32.5 16.1501V12.2501Z" fill="#F3F9FA"/>
<path d="M32.5 12.2501C32.5 12.0512 32.421 11.8604 32.2803 11.7198C32.1397 11.5791 31.9489 11.5001 31.75 11.5001H28C26.1117 11.406 24.2629 12.0632 22.8576 13.3279C21.4523 14.5927 20.6047 16.3623 20.5 18.2501V22.3001H16.75C16.5511 22.3001 16.3603 22.3791 16.2197 22.5198C16.079 22.6604 16 22.8512 16 23.0501V26.9501C16 27.149 16.079 27.3398 16.2197 27.4804C16.3603 27.6211 16.5511 27.7001 16.75 27.7001H20.5V37.7501C20.5 37.949 20.579 38.1398 20.7197 38.2804C20.8603 38.4211 21.0511 38.5001 21.25 38.5001H25.75C25.9489 38.5001 26.1397 38.4211 26.2803 38.2804C26.421 38.1398 26.5 37.949 26.5 37.7501V27.7001H30.43C30.5968 27.7025 30.7596 27.6492 30.8927 27.5487C31.0258 27.4482 31.1216 27.3062 31.165 27.1451L32.245 23.2451C32.2748 23.1343 32.2789 23.0181 32.2567 22.9055C32.2346 22.7929 32.1869 22.6868 32.1174 22.5955C32.0478 22.5042 31.9582 22.4301 31.8555 22.3789C31.7528 22.3277 31.6398 22.3007 31.525 22.3001H26.5V18.2501C26.5373 17.8788 26.7117 17.5347 26.989 17.2851C27.2664 17.0355 27.6268 16.8982 28 16.9001H31.75C31.9489 16.9001 32.1397 16.8211 32.2803 16.6804C32.421 16.5398 32.5 16.349 32.5 16.1501V12.2501Z" fill="#F3F9FA"/>
</svg>
