<svg width="49" height="49" viewBox="0 0 49 49" fill="none" xmlns="http://www.w3.org/2000/svg">
<circle cx="24.5" cy="24.5" r="24.5" fill="#F5C042"/>
<path fill-rule="evenodd" clip-rule="evenodd" d="M18.62 9.088C20.184 9.016 20.6827 9 24.6667 9C28.6507 9 29.1493 9.01733 30.712 9.088C32.2747 9.15867 33.3413 9.408 34.2747 9.76933C35.252 10.1387 36.1387 10.716 36.872 11.4627C37.6187 12.1947 38.1947 13.08 38.5627 14.0587C38.9253 14.992 39.1733 16.0587 39.2453 17.6187C39.3173 19.1853 39.3333 19.684 39.3333 23.6667C39.3333 27.6507 39.316 28.1493 39.2453 29.7133C39.1747 31.2733 38.9253 32.34 38.5627 33.2733C38.1947 34.2521 37.6177 35.1389 36.872 35.872C36.1387 36.6187 35.252 37.1947 34.2747 37.5627C33.3413 37.9253 32.2747 38.1733 30.7147 38.2453C29.1493 38.3173 28.6507 38.3333 24.6667 38.3333C20.6827 38.3333 20.184 38.316 18.62 38.2453C17.06 38.1747 15.9933 37.9253 15.06 37.5627C14.0812 37.1946 13.1944 36.6177 12.4613 35.872C11.7152 35.1396 11.1378 34.2532 10.7693 33.2747C10.408 32.3413 10.16 31.2747 10.088 29.7147C10.016 28.148 10 27.6493 10 23.6667C10 19.6827 10.0173 19.184 10.088 17.6213C10.1587 16.0587 10.408 14.992 10.7693 14.0587C11.1383 13.0801 11.7162 12.1938 12.4627 11.4613C13.1947 10.7153 14.0806 10.1379 15.0587 9.76933C15.992 9.408 17.0587 9.16 18.6187 9.088H18.62ZM30.5933 11.728C29.0467 11.6573 28.5827 11.6427 24.6667 11.6427C20.7507 11.6427 20.2867 11.6573 18.74 11.728C17.3093 11.7933 16.5333 12.032 16.016 12.2333C15.332 12.5 14.8427 12.816 14.3293 13.3293C13.8427 13.8027 13.4682 14.379 13.2333 15.016C13.032 15.5333 12.7933 16.3093 12.728 17.74C12.6573 19.2867 12.6427 19.7507 12.6427 23.6667C12.6427 27.5827 12.6573 28.0467 12.728 29.5933C12.7933 31.024 13.032 31.8 13.2333 32.3173C13.468 32.9533 13.8427 33.5307 14.3293 34.004C14.8027 34.4907 15.38 34.8653 16.016 35.1C16.5333 35.3013 17.3093 35.54 18.74 35.6053C20.2867 35.676 20.7493 35.6907 24.6667 35.6907C28.584 35.6907 29.0467 35.676 30.5933 35.6053C32.024 35.54 32.8 35.3013 33.3173 35.1C34.0013 34.8333 34.4907 34.5173 35.004 34.004C35.4907 33.5307 35.8653 32.9533 36.1 32.3173C36.3013 31.8 36.54 31.024 36.6053 29.5933C36.676 28.0467 36.6907 27.5827 36.6907 23.6667C36.6907 19.7507 36.676 19.2867 36.6053 17.74C36.54 16.3093 36.3013 15.5333 36.1 15.016C35.8333 14.332 35.5173 13.8427 35.004 13.3293C34.5306 12.8428 33.9543 12.4683 33.3173 12.2333C32.8 12.032 32.024 11.7933 30.5933 11.728V11.728ZM22.7933 28.188C23.8395 28.6235 25.0045 28.6823 26.0892 28.3543C27.174 28.0263 28.1112 27.3319 28.7408 26.3897C29.3704 25.4474 29.6534 24.3158 29.5414 23.1881C29.4294 22.0605 28.9293 21.0066 28.1267 20.2067C27.615 19.6953 26.9963 19.3037 26.3151 19.0602C25.6339 18.8166 24.9072 18.7271 24.1873 18.7982C23.4674 18.8692 22.7722 19.0989 22.1517 19.4708C21.5313 19.8428 21.001 20.3477 20.5991 20.9491C20.1971 21.5506 19.9336 22.2337 19.8274 22.9493C19.7211 23.6648 19.7749 24.3951 19.9847 25.0874C20.1946 25.7797 20.5553 26.4168 21.041 26.953C21.5266 27.4891 22.1251 27.9109 22.7933 28.188ZM19.336 18.336C20.036 17.636 20.8671 17.0807 21.7817 16.7018C22.6964 16.323 23.6767 16.128 24.6667 16.128C25.6567 16.128 26.637 16.323 27.5516 16.7018C28.4662 17.0807 29.2973 17.636 29.9973 18.336C30.6974 19.036 31.2527 19.8671 31.6315 20.7817C32.0104 21.6964 32.2054 22.6767 32.2054 23.6667C32.2054 24.6567 32.0104 25.637 31.6315 26.5516C31.2527 27.4662 30.6974 28.2973 29.9973 28.9973C28.5836 30.4111 26.6661 31.2054 24.6667 31.2054C22.6673 31.2054 20.7498 30.4111 19.336 28.9973C17.9222 27.5836 17.128 25.6661 17.128 23.6667C17.128 21.6673 17.9222 19.7498 19.336 18.336V18.336ZM33.8773 17.2507C34.0508 17.087 34.1897 16.8902 34.2857 16.672C34.3818 16.4537 34.4331 16.2184 34.4366 15.9799C34.44 15.7415 34.3956 15.5047 34.306 15.2837C34.2163 15.0628 34.0832 14.862 33.9146 14.6934C33.746 14.5248 33.5452 14.3917 33.3243 14.302C33.1033 14.2124 32.8665 14.168 32.6281 14.1714C32.3896 14.1749 32.1543 14.2262 31.936 14.3223C31.7178 14.4183 31.521 14.5572 31.3573 14.7307C31.0391 15.068 30.8648 15.5162 30.8716 15.9799C30.8784 16.4437 31.0656 16.8865 31.3935 17.2145C31.7215 17.5424 32.1643 17.7296 32.6281 17.7364C33.0918 17.7432 33.54 17.5689 33.8773 17.2507V17.2507Z" fill="#F3F9FA"/>
</svg>
