<svg width="35" height="34" viewBox="0 0 35 34" fill="none" xmlns="http://www.w3.org/2000/svg">
<path d="M14.2202 19.6402C16.3077 21.7579 18.8335 23.3928 21.6202 24.4302L25.3902 21.4302C25.502 21.3533 25.6345 21.312 25.7702 21.312C25.906 21.312 26.0385 21.3533 26.1502 21.4302L33.1502 25.9402C33.416 26.1 33.6409 26.3194 33.8073 26.581C33.9737 26.8427 34.077 27.1394 34.109 27.4479C34.141 27.7563 34.1009 28.0679 33.9918 28.3582C33.8826 28.6484 33.7075 28.9093 33.4802 29.1202L30.2002 32.3602C29.7305 32.8244 29.1532 33.165 28.5198 33.3517C27.8864 33.5384 27.2166 33.5654 26.5702 33.4302C20.1224 32.0985 14.1794 28.9797 9.42024 24.4302C4.76672 19.8355 1.54651 13.9891 0.150239 7.60023C0.012305 6.96387 0.0410937 6.30267 0.233815 5.6807C0.426536 5.05874 0.776654 4.4971 1.25024 4.05023L4.65024 0.770227C4.86064 0.554015 5.11722 0.388202 5.40079 0.285205C5.68435 0.182208 5.98754 0.144696 6.28765 0.175476C6.58776 0.206257 6.87702 0.304534 7.13377 0.462948C7.39052 0.621361 7.60811 0.835807 7.77024 1.09023L12.4302 8.00023C12.5106 8.10873 12.554 8.24019 12.554 8.37523C12.554 8.51026 12.5106 8.64172 12.4302 8.75023L9.36024 12.4402C10.4258 15.1712 12.086 17.6307 14.2202 19.6402V19.6402Z" fill="#449BAB"/>
</svg>
