<svg width="36" height="36" viewBox="0 0 36 36" fill="none" xmlns="http://www.w3.org/2000/svg">
<path d="M15.2202 20.6402C17.3077 22.7579 19.8335 24.3928 22.6202 25.4302L26.3902 22.4302C26.502 22.3533 26.6345 22.312 26.7702 22.312C26.906 22.312 27.0385 22.3533 27.1502 22.4302L34.1502 26.9402C34.416 27.1 34.6409 27.3194 34.8073 27.581C34.9737 27.8427 35.077 28.1394 35.109 28.4479C35.141 28.7563 35.1009 29.0679 34.9918 29.3582C34.8826 29.6484 34.7075 29.9093 34.4802 30.1202L31.2002 33.3602C30.7305 33.8244 30.1532 34.165 29.5198 34.3517C28.8864 34.5384 28.2166 34.5654 27.5702 34.4302C21.1224 33.0985 15.1794 29.9797 10.4202 25.4302C5.76672 20.8355 2.54651 14.9891 1.15024 8.60023C1.0123 7.96387 1.04109 7.30267 1.23381 6.6807C1.42654 6.05874 1.77665 5.4971 2.25024 5.05023L5.65024 1.77023C5.86064 1.55401 6.11722 1.3882 6.40079 1.28521C6.68435 1.18221 6.98754 1.1447 7.28765 1.17548C7.58776 1.20626 7.87702 1.30453 8.13377 1.46295C8.39052 1.62136 8.60811 1.83581 8.77024 2.09023L13.4302 9.00023C13.5106 9.10873 13.554 9.24019 13.554 9.37523C13.554 9.51026 13.5106 9.64172 13.4302 9.75023L10.3602 13.4402C11.4258 16.1712 13.086 18.6306 15.2202 20.6402Z" fill="#449BAB"/>
</svg>
