<svg width="25" height="25" viewBox="0 0 25 25" fill="none" xmlns="http://www.w3.org/2000/svg">
<path d="M23.6519 18.338L21.2241 15.9102C20.7848 15.4711 20.2344 15.1594 19.6318 15.0085C19.0292 14.8576 18.397 14.873 17.8025 15.0532C17.208 15.2334 16.6735 15.5716 16.2561 16.0317C15.8388 16.4918 15.5541 17.0566 15.4325 17.6658C11.429 16.9172 7.53525 13.0394 7.29289 9.57342C7.9735 9.44822 8.59987 9.11881 9.08872 8.62898C9.73237 7.98525 10.094 7.11221 10.094 6.2019C10.094 5.29158 9.73237 4.41854 9.08872 3.77481L6.66164 1.34703C6.01791 0.703387 5.14487 0.341797 4.23456 0.341797C3.32424 0.341797 2.45121 0.703387 1.80747 1.34703C-5.47447 8.62898 16.37 30.4734 23.6519 23.1915C24.2952 22.5477 24.6565 21.6748 24.6565 20.7647C24.6565 19.8547 24.2952 18.9818 23.6519 18.338Z" fill="#F5C042"/>
</svg>
