<svg width="26" height="26" viewBox="0 0 26 26" fill="none" xmlns="http://www.w3.org/2000/svg">
<path d="M12.9965 2.88867C11.0877 2.89029 9.25699 3.65713 7.90436 5.02172C6.55174 6.38631 5.78706 8.23774 5.77734 10.1717C5.77734 13.0712 7.38296 15.4988 8.5596 17.2684L8.77409 17.5912C9.94477 19.3102 11.2006 20.968 12.5369 22.5583L13.0026 23.1109L13.4684 22.5583C14.8044 20.9679 16.0603 19.3101 17.2312 17.5912L17.4457 17.2622C18.6162 15.4926 20.2218 13.0712 20.2218 10.1717C20.2121 8.23667 19.4465 6.38429 18.0926 5.01953C16.7386 3.65477 14.9064 2.88865 12.9965 2.88867ZM12.9965 13.4437C12.2014 13.4437 11.4241 13.2048 10.763 12.7573C10.1019 12.3097 9.58662 11.6736 9.28234 10.9294C8.97807 10.1851 8.89845 9.36619 9.05357 8.57611C9.20869 7.78602 9.59158 7.06028 10.1538 6.49066C10.716 5.92104 11.4324 5.53312 12.2122 5.37597C12.992 5.21881 13.8004 5.29947 14.535 5.60774C15.2695 5.91602 15.8974 6.43807 16.3392 7.10787C16.7809 7.77767 17.0167 8.56515 17.0167 9.37071C17.0167 10.4509 16.5931 11.4869 15.8392 12.2508C15.0853 13.0146 14.0627 13.4437 12.9965 13.4437Z" fill="#F5C042"/>
</svg>
