<svg width="27" height="26" viewBox="0 0 27 26" fill="none" xmlns="http://www.w3.org/2000/svg">
<path d="M13.0222 2.88867C11.1096 2.89029 9.27543 3.65713 7.92019 5.02172C6.56495 6.38631 5.79879 8.23774 5.78906 10.1717C5.78906 13.0712 7.39778 15.4988 8.57669 17.2684L8.7916 17.5912C9.96453 19.3102 11.2228 20.968 12.5616 22.5583L13.0283 23.1109L13.4949 22.5583C14.8336 20.9679 16.0919 19.3101 17.265 17.5912L17.4799 17.2622C18.6527 15.4926 20.2614 13.0712 20.2614 10.1717C20.2517 8.23667 19.4847 6.38429 18.1281 5.01953C16.7715 3.65477 14.9358 2.88865 13.0222 2.88867ZM13.0222 13.4437C12.2255 13.4437 11.4467 13.2048 10.7844 12.7573C10.122 12.3097 9.60569 11.6736 9.30083 10.9294C8.99596 10.1851 8.9162 9.36619 9.07162 8.57611C9.22703 7.78602 9.61066 7.06028 10.174 6.49066C10.7373 5.92104 11.455 5.53312 12.2363 5.37597C13.0177 5.21881 13.8276 5.29947 14.5636 5.60774C15.2996 5.91602 15.9287 6.43807 16.3713 7.10787C16.8139 7.77767 17.0501 8.56515 17.0501 9.37071C17.0501 10.4509 16.6257 11.4869 15.8703 12.2508C15.115 13.0146 14.0904 13.4437 13.0222 13.4437Z" fill="#DF375B"/>
</svg>
