<svg width="16" height="22" viewBox="0 0 16 22" fill="none" xmlns="http://www.w3.org/2000/svg">
<path d="M8.02216 0.888672C6.10962 0.890287 4.27543 1.65713 2.92019 3.02172C1.56495 4.38631 0.798795 6.23774 0.789062 8.17165C0.789062 11.0712 2.39778 13.4988 3.57669 15.2684L3.7916 15.5912C4.96453 17.3102 6.22283 18.968 7.56165 20.5583L8.0283 21.1109L8.49495 20.5583C9.83359 18.9679 11.0919 17.3101 12.265 15.5912L12.4799 15.2622C13.6527 13.4926 15.2614 11.0712 15.2614 8.17165C15.2517 6.23667 14.4847 4.38429 13.1281 3.01953C11.7715 1.65477 9.93576 0.888647 8.02216 0.888672ZM8.02216 11.4437C7.22551 11.4437 6.44675 11.2048 5.78436 10.7573C5.12196 10.3097 4.60569 9.67363 4.30083 8.92938C3.99596 8.18514 3.9162 7.36619 4.07162 6.57611C4.22703 5.78602 4.61066 5.06028 5.17398 4.49066C5.73729 3.92104 6.455 3.53312 7.23635 3.37597C8.01769 3.21881 8.82757 3.29947 9.56358 3.60774C10.2996 3.91602 10.9287 4.43807 11.3713 5.10787C11.8139 5.77767 12.0501 6.56515 12.0501 7.37071C12.0501 8.45094 11.6257 9.48692 10.8703 10.2508C10.115 11.0146 9.09043 11.4437 8.02216 11.4437Z" fill="#E97B5F"/>
</svg>
