<svg width="49" height="49" viewBox="0 0 49 49" fill="none" xmlns="http://www.w3.org/2000/svg">
<circle cx="24.5" cy="24.5" r="24.5" fill="#F5C042"/>
<g clip-path="url(#clip0_1563_978)">
<path fill-rule="evenodd" clip-rule="evenodd" d="M31.7688 26.9776C31.3963 26.7913 29.57 25.8938 29.23 25.7688C28.89 25.6451 28.6425 25.5838 28.3938 25.9563C28.1463 26.3263 27.435 27.1638 27.2187 27.4113C27.0012 27.6601 26.785 27.6901 26.4137 27.5051C26.0425 27.3176 24.845 26.9263 23.4263 25.6613C22.3225 24.6763 21.5763 23.4601 21.36 23.0876C21.1438 22.7163 21.3363 22.5151 21.5225 22.3301C21.69 22.1638 21.8937 21.8963 22.08 21.6801C22.2662 21.4626 22.3275 21.3076 22.4513 21.0588C22.5763 20.8113 22.5137 20.5951 22.42 20.4088C22.3275 20.2226 21.585 18.3938 21.275 17.6501C20.9738 16.9263 20.6675 17.0251 20.44 17.0126C20.2225 17.0026 19.975 17.0001 19.7275 17.0001C19.48 17.0001 19.0775 17.0926 18.7375 17.4651C18.3962 17.8363 17.4375 18.7351 17.4375 20.5638C17.4375 22.3913 18.7675 24.1576 18.9538 24.4063C19.14 24.6538 21.5725 28.4063 25.2988 30.0151C26.1863 30.3976 26.8775 30.6263 27.4162 30.7963C28.3062 31.0801 29.1163 31.0401 29.7563 30.9438C30.4688 30.8376 31.9538 30.0451 32.2638 29.1776C32.5725 28.3101 32.5725 27.5663 32.48 27.4113C32.3875 27.2563 32.14 27.1638 31.7675 26.9776H31.7688ZM24.9913 36.2313H24.9863C22.773 36.2317 20.6005 35.6368 18.6962 34.5088L18.2463 34.2413L13.5688 35.4688L14.8175 30.9088L14.5237 30.4413C13.2864 28.4717 12.6316 26.1923 12.635 23.8663C12.6375 17.0538 18.18 11.5113 24.9962 11.5113C28.2962 11.5113 31.3988 12.7988 33.7313 15.1338C34.8817 16.2795 35.7936 17.642 36.4141 19.1424C37.0346 20.6428 37.3514 22.2514 37.3463 23.8751C37.3438 30.6876 31.8012 36.2313 24.9913 36.2313V36.2313ZM35.5063 13.3601C34.129 11.9737 32.4903 10.8745 30.6851 10.1261C28.8799 9.37763 26.9442 8.9949 24.99 9.00005C16.7975 9.00005 10.1275 15.6688 10.125 23.8651C10.1238 26.4851 10.8075 29.0425 12.1088 31.2963L10 39.0001L17.88 36.9326C20.0598 38.1202 22.5026 38.7425 24.985 38.7426H24.9913C33.1837 38.7426 39.8538 32.0738 39.8563 23.8763C39.8623 21.9229 39.481 19.9877 38.7343 18.1826C37.9876 16.3775 36.8905 14.7384 35.5063 13.3601" fill="#F3F9FA"/>
</g>
<defs>
<clipPath id="clip0_1563_978">
<rect width="30" height="30" fill="white" transform="translate(10 9)"/>
</clipPath>
</defs>
</svg>
