<svg width="16" height="22" viewBox="0 0 16 22" fill="none" xmlns="http://www.w3.org/2000/svg">
    <path d="M7.9965 0.888672C6.08765 0.890287 4.25699 1.65713 2.90436 3.02172C1.55174 4.38631 0.787057 6.23774 0.777344 8.17165C0.777344 11.0712 2.38296 13.4988 3.5596 15.2684L3.77409 15.5912C4.94477 17.3102 6.20064 18.968 7.53688 20.5583L8.00263 21.1109L8.46838 20.5583C9.80445 18.9679 11.0603 17.3101 12.2312 15.5912L12.4457 15.2622C13.6162 13.4926 15.2218 11.0712 15.2218 8.17165C15.2121 6.23667 14.4465 4.38429 13.0926 3.01953C11.7386 1.65477 9.90641 0.888647 7.9965 0.888672ZM7.9965 11.4437C7.20139 11.4437 6.42413 11.2048 5.76301 10.7573C5.1019 10.3097 4.58662 9.67363 4.28234 8.92938C3.97807 8.18514 3.89845 7.36619 4.05357 6.57611C4.20869 5.78602 4.59158 5.06028 5.15381 4.49066C5.71604 3.92104 6.43237 3.53312 7.2122 3.37597C7.99204 3.21881 8.80037 3.29947 9.53496 3.60774C10.2695 3.91602 10.8974 4.43807 11.3392 5.10787C11.7809 5.77767 12.0167 6.56515 12.0167 7.37071C12.0167 8.45094 11.5931 9.48692 10.8392 10.2508C10.0853 11.0146 9.06272 11.4437 7.9965 11.4437Z"
          fill="#298D9F"/>
</svg>
