<svg width="138" height="24" viewBox="0 0 138 24" fill="none" xmlns="http://www.w3.org/2000/svg">
<path d="M2.001 23C1.45967 23 1.044 22.768 0.754 22.304C0.464 21.84 0.435 21.347 0.667 20.825L8.816 1.366C9.106 0.689332 9.57967 0.350999 10.237 0.350999C10.933 0.350999 11.4067 0.689332 11.658 1.366L19.836 20.883C20.0487 21.4243 20.01 21.9173 19.72 22.362C19.4493 22.7873 19.0337 23 18.473 23C18.183 23 17.9027 22.9227 17.632 22.768C17.3807 22.594 17.197 22.362 17.081 22.072L15.457 18.012H5.046L3.393 22.072C3.25767 22.3813 3.05467 22.6133 2.784 22.768C2.53267 22.9227 2.27167 23 2.001 23ZM6.061 15.518H14.442L10.295 5.194L6.061 15.518ZM24.4506 23C23.484 23 23.0006 22.5167 23.0006 21.55V8.587C23.0006 7.62033 23.484 7.137 24.4506 7.137C25.4173 7.137 25.9006 7.62033 25.9006 8.587V9.138C26.4806 8.46133 27.1863 7.92967 28.0176 7.543C28.8683 7.15633 29.7866 6.963 30.7726 6.963C31.9326 6.963 32.793 7.15633 33.3536 7.543C33.9336 7.91033 34.156 8.355 34.0206 8.877C33.924 9.283 33.7306 9.55367 33.4406 9.689C33.1506 9.805 32.8123 9.82433 32.4256 9.747C31.1883 9.49567 30.0766 9.47633 29.0906 9.689C28.1046 9.90167 27.3216 10.298 26.7416 10.878C26.181 11.458 25.9006 12.1927 25.9006 13.082V21.55C25.9006 22.5167 25.4173 23 24.4506 23ZM42.8751 23C41.9085 23 41.0385 22.7583 40.2651 22.275C39.4918 21.7723 38.8828 21.0957 38.4381 20.245C37.9935 19.3943 37.7711 18.4373 37.7711 17.374V10.211H36.4371C36.0311 10.211 35.7025 10.095 35.4511 9.863C35.1998 9.631 35.0741 9.341 35.0741 8.993C35.0741 8.60633 35.1998 8.297 35.4511 8.065C35.7025 7.833 36.0311 7.717 36.4371 7.717H37.7711V3.541C37.7711 3.11567 37.9065 2.76767 38.1771 2.497C38.4478 2.22633 38.7958 2.091 39.2211 2.091C39.6465 2.091 39.9945 2.22633 40.2651 2.497C40.5358 2.76767 40.6711 3.11567 40.6711 3.541V7.717H43.1361C43.5421 7.717 43.8708 7.833 44.1221 8.065C44.3735 8.297 44.4991 8.60633 44.4991 8.993C44.4991 9.341 44.3735 9.631 44.1221 9.863C43.8708 10.095 43.5421 10.211 43.1361 10.211H40.6711V17.374C40.6711 18.1473 40.8838 18.795 41.3091 19.317C41.7345 19.839 42.2565 20.1 42.8751 20.1H43.8611C44.2091 20.1 44.4991 20.2353 44.7311 20.506C44.9825 20.7767 45.1081 21.1247 45.1081 21.55C45.1081 21.9753 44.9438 22.3233 44.6151 22.594C44.3058 22.8647 43.8998 23 43.3971 23H42.8751Z" fill="#DF375B"/>
<path d="M50.5128 23C50.0875 23 49.7298 22.8647 49.4398 22.594C49.1691 22.304 49.0338 21.9463 49.0338 21.521V8.616C49.0338 8.17133 49.1691 7.81367 49.4398 7.543C49.7298 7.27233 50.0875 7.137 50.5128 7.137C50.9575 7.137 51.3151 7.27233 51.5858 7.543C51.8565 7.81367 51.9918 8.17133 51.9918 8.616V21.521C51.9918 21.9463 51.8565 22.304 51.5858 22.594C51.3151 22.8647 50.9575 23 50.5128 23ZM50.5128 4.556C49.9908 4.556 49.5365 4.37233 49.1498 4.005C48.7825 3.61833 48.5988 3.164 48.5988 2.642C48.5988 2.12 48.7825 1.67533 49.1498 1.308C49.5365 0.921333 49.9908 0.728 50.5128 0.728C51.0348 0.728 51.4795 0.921333 51.8468 1.308C52.2335 1.67533 52.4268 2.12 52.4268 2.642C52.4268 3.164 52.2335 3.61833 51.8468 4.005C51.4795 4.37233 51.0348 4.556 50.5128 4.556ZM64.9478 23.116C63.3431 23.116 61.9124 22.7777 60.6558 22.101C59.4184 21.405 58.4421 20.4577 57.7268 19.259C57.0308 18.041 56.6828 16.649 56.6828 15.083C56.6828 13.4977 57.0114 12.1057 57.6688 10.907C58.3454 9.689 59.2734 8.74167 60.4528 8.065C61.6321 7.369 62.9854 7.021 64.5128 7.021C66.0208 7.021 67.3161 7.35933 68.3988 8.036C69.4814 8.69333 70.3031 9.61167 70.8638 10.791C71.4438 11.951 71.7338 13.2947 71.7338 14.822C71.7338 15.1893 71.6081 15.4987 71.3568 15.75C71.1054 15.982 70.7864 16.098 70.3998 16.098H59.3798C59.5924 17.432 60.2014 18.5243 61.2068 19.375C62.2314 20.2063 63.4784 20.622 64.9478 20.622C65.5471 20.622 66.1561 20.5157 66.7748 20.303C67.4128 20.071 67.9251 19.81 68.3118 19.52C68.6018 19.3073 68.9111 19.201 69.2398 19.201C69.5878 19.1817 69.8874 19.2783 70.1388 19.491C70.4674 19.781 70.6414 20.1 70.6608 20.448C70.6801 20.796 70.5254 21.0957 70.1968 21.347C69.5394 21.869 68.7178 22.2943 67.7318 22.623C66.7651 22.9517 65.8371 23.116 64.9478 23.116ZM64.5128 9.515C63.0821 9.515 61.9318 9.91133 61.0618 10.704C60.1918 11.4967 59.6408 12.5213 59.4088 13.778H69.0658C68.8918 12.5407 68.4181 11.5257 67.6448 10.733C66.8714 9.921 65.8274 9.515 64.5128 9.515ZM81.2775 23.116C79.9242 23.116 78.6675 22.913 77.5075 22.507C76.3668 22.0817 75.4775 21.55 74.8395 20.912C74.5495 20.6027 74.4238 20.2547 74.4625 19.868C74.5205 19.462 74.7138 19.1333 75.0425 18.882C75.4292 18.5727 75.8062 18.447 76.1735 18.505C76.5602 18.5437 76.8888 18.708 77.1595 18.998C77.4882 19.3653 78.0102 19.7133 78.7255 20.042C79.4602 20.3513 80.2722 20.506 81.1615 20.506C82.2828 20.506 83.1335 20.3223 83.7135 19.955C84.3128 19.5877 84.6222 19.114 84.6415 18.534C84.6608 17.954 84.3805 17.4513 83.8005 17.026C83.2398 16.6007 82.2055 16.2527 80.6975 15.982C78.7448 15.5953 77.3238 15.0153 76.4345 14.242C75.5645 13.4687 75.1295 12.5213 75.1295 11.4C75.1295 10.414 75.4195 9.602 75.9995 8.964C76.5795 8.30667 77.3238 7.82333 78.2325 7.514C79.1412 7.18533 80.0885 7.021 81.0745 7.021C82.3505 7.021 83.4815 7.224 84.4675 7.63C85.4535 8.036 86.2365 8.59667 86.8165 9.312C87.0872 9.62133 87.2128 9.95 87.1935 10.298C87.1742 10.6267 87.0098 10.907 86.7005 11.139C86.3912 11.3517 86.0238 11.4193 85.5985 11.342C85.1732 11.2647 84.8155 11.0907 84.5255 10.82C84.0422 10.356 83.5202 10.037 82.9595 9.863C82.3988 9.689 81.7512 9.602 81.0165 9.602C80.1658 9.602 79.4408 9.747 78.8415 10.037C78.2615 10.327 77.9715 10.7523 77.9715 11.313C77.9715 11.661 78.0585 11.98 78.2325 12.27C78.4258 12.5407 78.7932 12.792 79.3345 13.024C79.8758 13.2367 80.6685 13.4493 81.7125 13.662C83.8972 14.0873 85.4052 14.6963 86.2365 15.489C87.0872 16.2623 87.5125 17.2193 87.5125 18.36C87.5125 19.2493 87.2708 20.0517 86.7875 20.767C86.3235 21.4823 85.6275 22.0527 84.6995 22.478C83.7908 22.9033 82.6502 23.116 81.2775 23.116Z" fill="#FAB60D"/>
<path d="M97.0236 23C96.0569 23 95.1869 22.7583 94.4136 22.275C93.6402 21.7723 93.0312 21.0957 92.5866 20.245C92.1419 19.3943 91.9196 18.4373 91.9196 17.374V10.211H90.5856C90.1796 10.211 89.8509 10.095 89.5996 9.863C89.3482 9.631 89.2226 9.341 89.2226 8.993C89.2226 8.60633 89.3482 8.297 89.5996 8.065C89.8509 7.833 90.1796 7.717 90.5856 7.717H91.9196V3.541C91.9196 3.11567 92.0549 2.76767 92.3256 2.497C92.5962 2.22633 92.9442 2.091 93.3696 2.091C93.7949 2.091 94.1429 2.22633 94.4136 2.497C94.6842 2.76767 94.8196 3.11567 94.8196 3.541V7.717H97.2846C97.6906 7.717 98.0192 7.833 98.2706 8.065C98.5219 8.297 98.6476 8.60633 98.6476 8.993C98.6476 9.341 98.5219 9.631 98.2706 9.863C98.0192 10.095 97.6906 10.211 97.2846 10.211H94.8196V17.374C94.8196 18.1473 95.0322 18.795 95.4576 19.317C95.8829 19.839 96.4049 20.1 97.0236 20.1H98.0096C98.3576 20.1 98.6476 20.2353 98.8796 20.506C99.1309 20.7767 99.2566 21.1247 99.2566 21.55C99.2566 21.9753 99.0922 22.3233 98.7636 22.594C98.4542 22.8647 98.0482 23 97.5456 23H97.0236ZM109.504 23.116C108.093 23.116 106.827 22.768 105.705 22.072C104.584 21.3567 103.695 20.3997 103.037 19.201C102.399 17.983 102.08 16.6103 102.08 15.083C102.08 13.5557 102.428 12.183 103.124 10.965C103.84 9.747 104.797 8.79 105.995 8.094C107.213 7.37867 108.576 7.021 110.084 7.021C111.592 7.021 112.946 7.37867 114.144 8.094C115.343 8.79 116.29 9.747 116.986 10.965C117.702 12.183 118.059 13.5557 118.059 15.083V21.55C118.059 21.9753 117.914 22.333 117.624 22.623C117.354 22.8937 117.006 23.029 116.58 23.029C116.155 23.029 115.797 22.8937 115.507 22.623C115.237 22.333 115.101 21.9753 115.101 21.55V20.477C114.425 21.289 113.603 21.9367 112.636 22.42C111.689 22.884 110.645 23.116 109.504 23.116ZM110.084 20.506C111.07 20.506 111.95 20.274 112.723 19.81C113.497 19.3267 114.106 18.679 114.55 17.867C114.995 17.0357 115.217 16.1077 115.217 15.083C115.217 14.039 114.995 13.111 114.55 12.299C114.106 11.4677 113.497 10.82 112.723 10.356C111.95 9.87267 111.07 9.631 110.084 9.631C109.118 9.631 108.238 9.87267 107.445 10.356C106.672 10.82 106.053 11.4677 105.589 12.299C105.145 13.111 104.922 14.039 104.922 15.083C104.922 16.1077 105.145 17.0357 105.589 17.867C106.053 18.679 106.672 19.3267 107.445 19.81C108.238 20.274 109.118 20.506 110.084 20.506ZM129.654 23.116C128.146 23.116 126.783 22.768 125.565 22.072C124.366 21.3567 123.409 20.39 122.694 19.172C121.998 17.954 121.65 16.5813 121.65 15.054C121.65 13.5267 121.969 12.1637 122.607 10.965C123.264 9.747 124.153 8.79 125.275 8.094C126.396 7.37867 127.662 7.021 129.074 7.021C130.214 7.021 131.268 7.26267 132.235 7.746C133.201 8.21 134.013 8.848 134.671 9.66V1.83C134.671 1.38533 134.806 1.02767 135.077 0.756999C135.367 0.486333 135.724 0.350999 136.15 0.350999C136.594 0.350999 136.952 0.486333 137.223 0.756999C137.493 1.02767 137.629 1.38533 137.629 1.83V15.054C137.629 16.5813 137.271 17.954 136.556 19.172C135.86 20.39 134.912 21.3567 133.714 22.072C132.515 22.768 131.162 23.116 129.654 23.116ZM129.654 20.506C130.64 20.506 131.519 20.274 132.293 19.81C133.066 19.3267 133.675 18.6693 134.12 17.838C134.564 17.0067 134.787 16.0787 134.787 15.054C134.787 14.01 134.564 13.082 134.12 12.27C133.675 11.458 133.066 10.82 132.293 10.356C131.519 9.87267 130.64 9.631 129.654 9.631C128.687 9.631 127.807 9.87267 127.015 10.356C126.241 10.82 125.623 11.458 125.159 12.27C124.714 13.082 124.492 14.01 124.492 15.054C124.492 16.0787 124.714 17.0067 125.159 17.838C125.623 18.6693 126.241 19.3267 127.015 19.81C127.807 20.274 128.687 20.506 129.654 20.506Z" fill="#298D9F"/>
</svg>
