<svg width="375" height="874" viewBox="0 0 375 874" fill="none" xmlns="http://www.w3.org/2000/svg">
<g filter="url(#filter0_d_941_13651)">
<path fill-rule="evenodd" clip-rule="evenodd" d="M375 40H0V602.212H0.748159C5.18674 616.749 68.4838 818.227 135.5 711.782C179.78 641.449 198.487 681.228 222.009 731.245C235.406 759.733 250.365 791.541 272.5 808.22C331.469 852.651 370.812 617.898 373.368 602.212H375V40Z" fill="#298D9F"/>
</g>
<g filter="url(#filter1_d_941_13651)">
<path fill-rule="evenodd" clip-rule="evenodd" d="M375 40H0V575.948H0.756442C5.3318 590.456 70.3632 791.15 134 685.108C176.188 614.807 196.108 655.172 220.921 705.453C234.927 733.833 250.492 765.373 272.5 781.956C331.469 826.387 370.812 591.634 373.368 575.948H375V40Z" fill="white"/>
</g>
<defs>
<filter id="filter0_d_941_13651" x="-50" y="0" width="475" height="873.805" filterUnits="userSpaceOnUse" color-interpolation-filters="sRGB">
<feFlood flood-opacity="0" result="BackgroundImageFix"/>
<feColorMatrix in="SourceAlpha" type="matrix" values="0 0 0 0 0 0 0 0 0 0 0 0 0 0 0 0 0 0 127 0" result="hardAlpha"/>
<feOffset dy="10"/>
<feGaussianBlur stdDeviation="25"/>
<feComposite in2="hardAlpha" operator="out"/>
<feColorMatrix type="matrix" values="0 0 0 0 0 0 0 0 0 0 0 0 0 0 0 0 0 0 0.25 0"/>
<feBlend mode="normal" in2="BackgroundImageFix" result="effect1_dropShadow_941_13651"/>
<feBlend mode="normal" in="SourceGraphic" in2="effect1_dropShadow_941_13651" result="shape"/>
</filter>
<filter id="filter1_d_941_13651" x="-50" y="0" width="475" height="847.543" filterUnits="userSpaceOnUse" color-interpolation-filters="sRGB">
<feFlood flood-opacity="0" result="BackgroundImageFix"/>
<feColorMatrix in="SourceAlpha" type="matrix" values="0 0 0 0 0 0 0 0 0 0 0 0 0 0 0 0 0 0 127 0" result="hardAlpha"/>
<feOffset dy="10"/>
<feGaussianBlur stdDeviation="25"/>
<feComposite in2="hardAlpha" operator="out"/>
<feColorMatrix type="matrix" values="0 0 0 0 0 0 0 0 0 0 0 0 0 0 0 0 0 0 0.25 0"/>
<feBlend mode="normal" in2="BackgroundImageFix" result="effect1_dropShadow_941_13651"/>
<feBlend mode="normal" in="SourceGraphic" in2="effect1_dropShadow_941_13651" result="shape"/>
</filter>
</defs>
</svg>
