<svg width="58" height="58" viewBox="0 0 58 58" fill="none" xmlns="http://www.w3.org/2000/svg">
<path d="M53.1411 28.8687C53.1411 29.5126 53.0118 30.1499 52.761 30.7429C52.5102 31.3358 52.1429 31.8724 51.6809 32.3209C51.219 32.7694 50.6717 33.1205 50.0715 33.3536C49.4713 33.5867 48.8305 33.697 48.1869 33.6779L36.7368 33.342L28.3896 50.6042C27.7202 51.9914 26.3113 52.8759 24.7694 52.8759C24.453 52.8758 24.1402 52.8086 23.8516 52.6787C23.563 52.5488 23.3053 52.3591 23.0954 52.1223C22.8855 51.8855 22.7283 51.6068 22.634 51.3047C22.5397 51.0026 22.5106 50.684 22.5485 50.3698L24.6317 32.9867L15.5329 32.7209L14.3488 35.9617C14.1294 36.5616 13.7311 37.0796 13.2076 37.4457C12.6842 37.8118 12.061 38.0083 11.4222 38.0086C11.136 38.0086 10.8527 37.9522 10.5884 37.8426C10.324 37.733 10.0839 37.5724 9.88167 37.37C9.67945 37.1675 9.51911 36.9272 9.40983 36.6627C9.30055 36.3983 9.24446 36.1149 9.24478 35.8287V32.2617L7.28728 31.8533C6.60168 31.7105 5.98619 31.3359 5.54436 30.7926C5.10253 30.2492 4.86133 29.5703 4.86133 28.87C4.86133 28.1696 5.10253 27.4907 5.54436 26.9473C5.98619 26.404 6.60168 26.0294 7.28728 25.8866L9.24478 25.4806V21.9087C9.24478 20.7971 10.0737 19.8836 11.1491 19.7482L11.4222 19.7313C12.0603 19.7319 12.6828 19.9283 13.2057 20.2939C13.7286 20.6595 14.1268 21.1768 14.3464 21.7758L15.5354 25.0142L24.6003 24.7483L22.5485 7.62867C22.5432 7.58449 22.5392 7.54017 22.5364 7.49575L22.5316 7.36283C22.5316 6.12792 23.5345 5.125 24.7694 5.125C26.1832 5.125 27.4834 5.86692 28.2084 7.05833L28.3896 7.39667L36.6135 24.3979L48.1894 24.0596C49.4648 24.0225 50.7027 24.4936 51.6309 25.3692C52.5591 26.2447 53.1014 27.4531 53.1387 28.7286L53.1411 28.8687V28.8687Z" fill="#298D9F"/>
</svg>
