<svg width="64" height="64" viewBox="0 0 64 64" fill="none" xmlns="http://www.w3.org/2000/svg">
<path d="M55.3927 27.0794L51.7447 16.1354C51.2155 14.542 50.1976 13.1559 48.8356 12.174C47.4737 11.1922 45.8369 10.6645 44.158 10.666H19.8433C18.1644 10.6645 16.5276 11.1922 15.1657 12.174C13.8037 13.1559 12.7858 14.542 12.2567 16.1354L8.60865 27.0794C7.63858 27.4853 6.81015 28.1689 6.2275 29.0443C5.64485 29.9197 5.33398 30.9478 5.33398 31.9994V45.3327C5.33398 47.3007 6.41132 49.002 8.00065 49.9274V55.9994C8.00065 56.7066 8.2816 57.3849 8.7817 57.885C9.2818 58.3851 9.96007 58.666 10.6673 58.666H13.334C14.0412 58.666 14.7195 58.3851 15.2196 57.885C15.7197 57.3849 16.0007 56.7066 16.0007 55.9994V50.666H48.0007V55.9994C48.0007 56.7066 48.2816 57.3849 48.7817 57.885C49.2818 58.3851 49.9601 58.666 50.6673 58.666H53.334C54.0412 58.666 54.7195 58.3851 55.2196 57.885C55.7197 57.3849 56.0007 56.7066 56.0007 55.9994V49.9274C56.8097 49.4634 57.4822 48.7944 57.9503 47.9877C58.4185 47.1811 58.6658 46.2653 58.6673 45.3327V31.9994C58.6673 30.9478 58.3565 29.9197 57.7738 29.0443C57.1912 28.1689 56.3627 27.4853 55.3927 27.0794ZM19.8433 15.9994H44.1553C45.3047 15.9994 46.3233 16.73 46.686 17.8234L49.6353 26.666H14.366L17.3127 17.8234C17.4896 17.2921 17.8292 16.8301 18.2834 16.5027C18.7377 16.1753 19.2834 15.9992 19.8433 15.9994ZM14.6673 42.666C14.1419 42.6658 13.6216 42.5622 13.1362 42.3609C12.6508 42.1597 12.2098 41.8648 11.8383 41.4931C11.4669 41.1214 11.1723 40.6802 10.9714 40.1947C10.7705 39.7092 10.6671 39.1888 10.6673 38.6634C10.6675 38.1379 10.7712 37.6176 10.9724 37.1322C11.1737 36.6468 11.4685 36.2058 11.8402 35.8344C12.2119 35.4629 12.6531 35.1684 13.1386 34.9674C13.6242 34.7665 14.1445 34.6632 14.67 34.6634C15.7312 34.6637 16.7488 35.0856 17.499 35.8363C18.2491 36.5869 18.6703 37.6048 18.67 38.666C18.6696 39.7272 18.2477 40.7449 17.4971 41.495C16.7464 42.2451 15.7285 42.6664 14.6673 42.666ZM49.334 42.666C48.8085 42.6658 48.2882 42.5622 47.8028 42.3609C47.3174 42.1597 46.8764 41.8648 46.505 41.4931C46.1336 41.1214 45.839 40.6802 45.6381 40.1947C45.4371 39.7092 45.3338 39.1888 45.334 38.6634C45.3342 38.1379 45.4378 37.6176 45.6391 37.1322C45.8403 36.6468 46.1352 36.2058 46.5069 35.8344C46.8786 35.4629 47.3198 35.1684 47.8053 34.9674C48.2908 34.7665 48.8112 34.6632 49.3367 34.6634C50.3979 34.6637 51.4155 35.0856 52.1656 35.8363C52.9158 36.5869 53.337 37.6048 53.3367 38.666C53.3363 39.7272 52.9144 40.7449 52.1637 41.495C51.4131 42.2451 50.3952 42.6664 49.334 42.666Z" fill="#DF375B"/>
</svg>
