<svg width="58" height="58" viewBox="0 0 58 58" fill="none" xmlns="http://www.w3.org/2000/svg">
<path d="M50.7507 28.0267V26.584H53.1673V19.334H50.7507V14.5007C50.7507 9.16948 46.4152 4.83398 41.084 4.83398H16.9173C11.5862 4.83398 7.25065 9.16948 7.25065 14.5007V19.334H4.83398V26.584H7.25065V28.0267C5.68707 29.7908 4.82767 32.0688 4.8364 34.4261L4.84607 43.5079C4.84848 45.2793 5.8224 46.8163 7.25065 47.6549V50.7507C7.25065 51.3916 7.50526 52.0063 7.95848 52.4595C8.41169 52.9127 9.02638 53.1673 9.66732 53.1673H12.084C12.7249 53.1673 13.3396 52.9127 13.7928 52.4595C14.246 52.0063 14.5007 51.3916 14.5007 50.7507V48.334H43.5007V50.7507C43.5007 51.3916 43.7553 52.0063 44.2085 52.4595C44.6617 52.9127 45.2764 53.1673 45.9173 53.1673H48.334C48.9749 53.1673 49.5896 52.9127 50.0428 52.4595C50.496 52.0063 50.7507 51.3916 50.7507 50.7507V47.6718C51.1212 47.465 51.4633 47.2107 51.7681 46.9154C52.6792 46.0019 53.1818 44.7863 53.1794 43.4958L53.1697 34.4116C53.1747 32.0585 52.3136 29.7858 50.7507 28.0267V28.0267ZM19.334 9.66732H38.6673V14.5007H19.334V9.66732ZM15.709 41.084C14.7473 41.0837 13.825 40.7013 13.1452 40.021C12.4654 39.3408 12.0837 38.4183 12.084 37.4566C12.0843 36.4948 12.4667 35.5726 13.1469 34.8928C13.8272 34.213 14.7497 33.8312 15.7114 33.8316C16.6731 33.8319 17.5953 34.2142 18.2752 34.8945C18.955 35.5748 19.3367 36.4973 19.3364 37.459C19.3361 38.4207 18.9537 39.3429 18.2735 40.0227C17.5932 40.7026 16.6707 41.0843 15.709 41.084ZM26.584 29.0007H12.084V19.334H26.584V29.0007ZM42.2923 41.084C41.3306 41.0837 40.4084 40.7013 39.7286 40.021C39.0487 39.3408 38.667 38.4183 38.6673 37.4566C38.6676 36.4948 39.05 35.5726 39.7303 34.8928C40.4105 34.213 41.333 33.8312 42.2947 33.8316C43.2565 33.8319 44.1787 34.2142 44.8585 34.8945C45.5383 35.5748 45.9201 36.4973 45.9197 37.459C45.9194 38.4207 45.5371 39.3429 44.8568 40.0227C44.1765 40.7026 43.254 41.0843 42.2923 41.084ZM45.9173 29.0007H31.4173V19.334H45.9173V29.0007Z" fill="#F5C042"/>
</svg>
